<svg xmlns="http://www.w3.org/2000/svg" viewBox="0 0 64 64" role="img" aria-label="BMP.tn logo">
  <defs>
    <linearGradient id="bmpBlueFile" x1="0%" y1="0%" x2="100%" y2="100%">
      <stop offset="0%" stop-color="#0f66d8" />
      <stop offset="100%" stop-color="#0a4fb3" />
    </linearGradient>
    <linearGradient id="bmpGreenFile" x1="0%" y1="0%" x2="100%" y2="100%">
      <stop offset="0%" stop-color="#18a96b" />
      <stop offset="100%" stop-color="#0c8f58" />
    </linearGradient>
  </defs>
  <rect x="4" y="4" width="56" height="56" rx="16" fill="#f4f8ff" />
  <rect x="8" y="8" width="48" height="48" rx="14" fill="#dfe8f4" />
  <path d="M16 46V18h11.5c4.6 0 8 2.9 8 7.1 0 2.2-.9 4-2.5 5 2.4 1 3.8 3 3.8 5.8 0 4.9-3.9 8.1-9 8.1H16Z" fill="url(#bmpBlueFile)" />
  <path d="M23.6 29.2h3.2c1.8 0 3-1.2 3-2.8 0-1.7-1.2-2.8-3-2.8h-3.2v5.6Zm0 11.2H27c2.2 0 3.5-1.3 3.5-3.3 0-2-1.3-3.3-3.5-3.3h-3.4v6.6Z" fill="#ffffff" />
  <path d="M40 18h8c6.4 0 11 4.9 11 11.5S54.4 41 48 41h-2.8v5H40V18Z" fill="url(#bmpGreenFile)" />
  <path d="M45.2 35.7H48c3.2 0 5.4-2.5 5.4-6.2 0-3.7-2.2-6.1-5.4-6.1h-2.8v12.3Z" fill="#ffffff" />
</svg>
